<svg xmlns="http://www.w3.org/2000/svg" xmlns:xlink="http://www.w3.org/1999/xlink" width="1024" zoomAndPan="magnify" viewBox="0 0 768 767.999994" height="1024" preserveAspectRatio="xMidYMid meet" version="1.0"><defs><clipPath id="bd3a0d405e"><path d="M 76.800781 76.800781 L 691.050781 76.800781 L 691.050781 691.050781 L 76.800781 691.050781 Z M 76.800781 76.800781 " clip-rule="nonzero"/></clipPath></defs><g clip-path="url(#bd3a0d405e)"><path fill="#020618" d="M 359.015625 76.800781 C 344.894531 76.800781 332.648438 86.367188 329.214844 100.058594 L 318.917969 141.238281 C 317.972656 144.988281 315.296875 147.972656 311.894531 149.019531 C 297.007812 153.574219 282.449219 159.625 268.617188 167 C 265.628906 168.617188 261.792969 168.433594 258.636719 166.519531 L 221.9375 144.5 C 209.835938 137.238281 194.414062 139.144531 184.417969 149.117188 L 149.097656 184.4375 C 139.113281 194.433594 137.21875 209.84375 144.480469 221.957031 L 166.5 258.636719 C 168.402344 261.800781 168.574219 265.636719 166.980469 268.636719 C 159.605469 282.480469 153.566406 297.027344 149 311.917969 C 147.953125 315.316406 144.96875 318.015625 141.21875 318.957031 L 100.058594 329.234375 C 86.367188 332.636719 76.800781 344.914062 76.800781 359.035156 L 76.800781 408.976562 C 76.800781 423.09375 86.367188 435.355469 100.058594 438.773438 L 141.238281 449.054688 C 144.988281 449.996094 147.953125 452.683594 149 456.09375 C 153.566406 470.972656 159.625 485.527344 167 499.375 C 168.597656 502.375 168.402344 506.210938 166.5 509.375 L 144.5 546.054688 C 137.238281 558.167969 139.136719 573.578125 149.117188 583.570312 L 184.4375 618.890625 C 194.433594 628.886719 209.84375 630.78125 221.957031 623.511719 L 258.636719 601.492188 C 261.792969 599.585938 265.625 599.394531 268.636719 601.011719 C 282.472656 608.382812 297.015625 614.433594 311.917969 618.992188 C 315.316406 620.035156 317.996094 623.023438 318.9375 626.773438 L 329.234375 667.949219 C 332.65625 681.621094 344.914062 691.191406 359.035156 691.191406 L 408.976562 691.191406 C 423.09375 691.191406 435.34375 681.621094 438.773438 667.929688 L 449.074219 626.75 C 450.015625 623.003906 452.695312 620.015625 456.09375 618.972656 C 470.984375 614.414062 485.539062 608.363281 499.375 600.992188 C 502.363281 599.382812 506.199219 599.566406 509.375 601.472656 L 546.054688 623.492188 C 558.167969 630.761719 573.589844 628.855469 583.570312 618.871094 L 618.890625 583.550781 C 628.875 573.558594 630.773438 558.148438 623.511719 546.03125 L 601.492188 509.351562 C 599.585938 506.1875 599.414062 502.355469 601.011719 499.355469 C 608.382812 485.507812 614.425781 470.964844 618.992188 456.074219 C 620.035156 452.675781 623.023438 449.976562 626.773438 449.035156 L 667.929688 438.753906 C 681.613281 435.355469 691.191406 423.074219 691.191406 408.953125 L 691.191406 359.015625 C 691.191406 344.90625 681.632812 332.636719 667.929688 329.214844 L 626.75 318.9375 C 623.003906 317.996094 620.015625 315.304688 618.972656 311.894531 C 614.40625 297.019531 608.363281 282.460938 600.992188 268.617188 C 599.394531 265.617188 599.566406 261.78125 601.472656 258.617188 L 623.492188 221.9375 C 630.75 209.824219 628.855469 194.414062 618.871094 184.417969 L 583.550781 149.097656 C 573.558594 139.113281 558.136719 137.21875 546.011719 144.480469 L 509.332031 166.5 C 506.160156 168.402344 502.34375 168.585938 499.355469 166.980469 C 485.519531 159.605469 470.953125 153.554688 456.054688 149 C 452.65625 147.953125 449.976562 144.96875 449.035156 141.21875 L 438.753906 100.039062 C 435.34375 86.371094 423.074219 76.800781 408.953125 76.800781 Z M 359.035156 97.28125 L 408.976562 97.28125 C 413.675781 97.28125 417.757812 100.484375 418.894531 105.039062 L 429.195312 146.199219 C 431.867188 156.878906 439.863281 165.464844 450.09375 168.597656 C 463.734375 172.777344 477.058594 178.320312 489.734375 185.078125 C 499.042969 190.035156 510.605469 189.660156 519.914062 184.078125 L 556.59375 162.058594 C 560.636719 159.652344 565.765625 160.292969 569.09375 163.597656 L 604.410156 198.917969 C 607.738281 202.246094 608.367188 207.382812 605.953125 211.417969 L 583.953125 248.097656 C 578.371094 257.386719 577.976562 268.949219 582.933594 278.257812 C 589.691406 290.945312 595.234375 304.296875 599.410156 317.917969 C 602.546875 328.136719 611.140625 336.132812 621.8125 338.796875 L 662.972656 349.097656 C 667.515625 350.242188 670.710938 354.324219 670.710938 359.035156 L 670.710938 408.953125 C 670.710938 413.664062 667.519531 417.738281 662.949219 418.894531 L 621.792969 429.195312 C 611.113281 431.855469 602.535156 439.855469 599.390625 450.074219 C 595.214844 463.691406 589.671875 477.046875 582.914062 489.734375 C 577.957031 499.042969 578.351562 510.605469 583.933594 519.894531 L 605.933594 556.574219 C 608.347656 560.605469 607.710938 565.734375 604.390625 569.074219 L 569.074219 604.390625 C 565.734375 607.699219 560.585938 608.347656 556.574219 605.933594 L 519.894531 583.914062 C 510.585938 578.332031 499.019531 577.976562 489.734375 582.914062 C 477.058594 589.671875 463.722656 595.214844 450.09375 599.390625 C 439.875 602.527344 431.867188 611.113281 429.195312 621.792969 L 418.894531 662.949219 C 417.746094 667.519531 413.664062 670.710938 408.953125 670.710938 L 359.015625 670.710938 C 354.316406 670.710938 350.234375 667.507812 349.097656 662.949219 L 338.796875 621.792969 C 336.125 611.113281 328.125 602.527344 317.894531 599.390625 C 304.257812 595.214844 290.933594 589.671875 278.257812 582.914062 C 273.90625 580.597656 269.0625 579.453125 264.175781 579.453125 C 258.628906 579.453125 253.042969 580.933594 248.078125 583.914062 L 211.398438 605.933594 C 207.363281 608.339844 202.234375 607.710938 198.898438 604.390625 L 163.578125 569.074219 C 160.25 565.746094 159.621094 560.605469 162.039062 556.574219 L 184.039062 519.894531 C 189.617188 510.605469 190.015625 499.042969 185.058594 489.734375 C 178.300781 477.046875 172.757812 463.691406 168.578125 450.074219 C 165.445312 439.855469 156.847656 431.855469 146.179688 429.195312 L 105.019531 418.894531 C 100.472656 417.746094 97.28125 413.664062 97.28125 408.953125 L 97.28125 359.015625 C 97.28125 354.304688 100.484375 350.234375 105.039062 349.074219 L 146.199219 338.796875 C 156.878906 336.132812 165.453125 328.117188 168.597656 317.894531 C 172.777344 304.277344 178.320312 290.925781 185.078125 278.238281 C 190.035156 268.929688 189.640625 257.386719 184.058594 248.097656 L 162.058594 211.417969 C 159.640625 207.382812 160.28125 202.238281 163.597656 198.898438 L 198.917969 163.597656 C 202.234375 160.28125 207.382812 159.640625 211.417969 162.058594 L 248.097656 184.058594 C 257.394531 189.648438 268.96875 190.023438 278.257812 185.058594 C 290.933594 178.300781 304.285156 172.777344 317.917969 168.597656 C 328.136719 165.464844 336.144531 156.878906 338.816406 146.199219 L 349.097656 105.039062 C 350.234375 100.484375 354.324219 97.28125 359.035156 97.28125 Z M 383.996094 189.4375 C 276.710938 189.4375 189.4375 276.710938 189.4375 383.996094 C 189.4375 389.65625 194.027344 394.234375 199.679688 394.234375 C 205.332031 394.234375 209.917969 389.65625 209.917969 383.996094 C 209.917969 288.007812 288.007812 209.917969 383.996094 209.917969 C 479.984375 209.917969 558.074219 288.007812 558.074219 383.996094 C 558.074219 479.984375 479.984375 558.074219 383.996094 558.074219 C 378.34375 558.074219 373.753906 562.648438 373.753906 568.3125 C 373.753906 573.976562 378.34375 578.550781 383.996094 578.550781 C 491.277344 578.550781 578.550781 491.277344 578.550781 383.996094 C 578.550781 276.710938 491.277344 189.4375 383.996094 189.4375 Z M 343.15625 291.238281 C 339.628906 291.214844 336.101562 292.132812 332.875 293.976562 C 326.414062 297.683594 322.554688 304.324219 322.554688 311.757812 L 322.554688 456.214844 C 322.554688 463.660156 326.40625 470.296875 332.855469 473.992188 C 336.050781 475.816406 339.542969 476.734375 343.035156 476.734375 C 346.597656 476.734375 350.160156 475.769531 353.394531 473.875 L 476.515625 401.65625 C 482.851562 397.9375 486.632812 391.347656 486.632812 383.996094 C 486.632812 376.644531 482.84375 370.050781 476.515625 366.335938 L 353.414062 294.097656 C 350.210938 292.21875 346.683594 291.257812 343.15625 291.238281 Z M 343.035156 311.777344 L 466.152344 383.996094 L 343.035156 456.292969 Z M 227.15625 416.234375 C 225.839844 416.054688 224.453125 416.144531 223.078125 416.515625 L 203.296875 421.816406 C 197.839844 423.289062 194.59375 428.90625 196.058594 434.375 C 197.285156 438.953125 201.421875 441.953125 205.9375 441.953125 C 206.808594 441.953125 207.707031 441.851562 208.597656 441.613281 L 228.398438 436.292969 C 233.855469 434.820312 237.101562 429.210938 235.636719 423.753906 C 234.53125 419.652344 231.113281 416.78125 227.15625 416.234375 Z M 240.859375 455.734375 C 239.539062 455.898438 238.222656 456.34375 236.996094 457.054688 L 219.257812 467.292969 C 214.363281 470.121094 212.691406 476.378906 215.519531 481.273438 C 217.421875 484.550781 220.835938 486.394531 224.378906 486.394531 C 226.109375 486.394531 227.878906 485.945312 229.496094 485.015625 L 247.238281 474.773438 C 252.132812 471.949219 253.804688 465.699219 250.976562 460.792969 C 248.851562 457.125 244.816406 455.242188 240.859375 455.734375 Z M 268.136719 489.59375 C 265.519531 489.59375 262.898438 490.597656 260.898438 492.59375 L 246.417969 507.074219 C 242.414062 511.078125 242.414062 517.550781 246.417969 521.554688 C 248.414062 523.550781 251.035156 524.554688 253.65625 524.554688 C 256.277344 524.554688 258.902344 523.550781 260.898438 521.554688 L 275.378906 507.074219 C 279.378906 503.070312 279.378906 496.597656 275.378906 492.59375 C 273.375 490.589844 270.757812 489.59375 268.136719 489.59375 Z M 303.335938 515.714844 C 299.375 515.222656 295.335938 517.089844 293.214844 520.753906 L 282.976562 538.492188 C 280.152344 543.398438 281.820312 549.648438 286.714844 552.472656 C 288.335938 553.40625 290.085938 553.851562 291.816406 553.851562 C 295.359375 553.851562 298.800781 552.007812 300.695312 548.734375 L 310.9375 530.992188 C 313.761719 526.097656 312.089844 519.851562 307.195312 517.011719 C 305.96875 516.304688 304.65625 515.875 303.335938 515.714844 Z M 340.175781 532.09375 C 336.222656 532.640625 332.792969 535.492188 331.695312 539.59375 L 326.394531 559.394531 C 324.933594 564.851562 328.167969 570.46875 333.636719 571.933594 C 334.527344 572.167969 335.414062 572.273438 336.296875 572.273438 C 340.8125 572.273438 344.957031 569.269531 346.175781 564.691406 L 351.476562 544.914062 C 352.941406 539.453125 349.695312 533.816406 344.234375 532.351562 C 342.867188 531.980469 341.496094 531.910156 340.175781 532.09375 Z M 340.175781 532.09375 " fill-opacity="1" fill-rule="nonzero"/></g></svg>